<svg width="17" height="17" viewBox="0 0 17 17" fill="none" xmlns="http://www.w3.org/2000/svg">
<path d="M7.67742 0.822581C7.67742 0.368282 8.0457 0 8.5 0C8.9543 0 9.32258 0.368282 9.32258 0.822581V16.1774C9.32258 16.6317 8.9543 17 8.5 17C8.0457 17 7.67742 16.6317 7.67742 16.1774V0.822581Z" fill="#059D42"/>
<path d="M0.822581 9.32258C0.368282 9.32258 1.9858e-08 8.9543 0 8.5C-1.9858e-08 8.0457 0.368282 7.67742 0.822581 7.67742L16.1774 7.67742C16.6317 7.67742 17 8.0457 17 8.5C17 8.9543 16.6317 9.32258 16.1774 9.32258L0.822581 9.32258Z" fill="#059D42"/>
</svg>
