<svg width="24" height="24" viewBox="0 0 24 24" fill="none" xmlns="http://www.w3.org/2000/svg">
<path fill-rule="evenodd" clip-rule="evenodd" d="M15.4841 6.83962C16.5859 6.83962 17.479 7.73276 17.479 8.83451C17.479 9.20176 17.1813 9.49947 16.8141 9.49947C16.4468 9.49947 16.1491 9.20176 16.1491 8.83451C16.1491 8.46727 15.8514 8.16955 15.4841 8.16955H12.8243V11.5826L15.7663 12.0029C16.749 12.1433 17.479 12.985 17.479 13.9777V15.4841C17.479 16.5859 16.5859 17.479 15.4841 17.479H12.8243V18.809C12.8243 19.1762 12.5266 19.4739 12.1593 19.4739C11.7921 19.4739 11.4944 19.1762 11.4944 18.809V17.479H8.83452C7.7328 17.479 6.83963 16.5859 6.83963 15.4841C6.83963 15.1169 7.13732 14.8192 7.50459 14.8192C7.87186 14.8192 8.16955 15.1169 8.16955 15.4841C8.16955 15.8514 8.46725 16.1491 8.83452 16.1491H11.4944V12.736L8.55241 12.3158C7.56962 12.1754 6.83963 11.3337 6.83963 10.3409V8.83451C6.83963 7.73276 7.7328 6.83962 8.83452 6.83962H11.4944V5.5097C11.4944 5.14245 11.7921 4.84473 12.1593 4.84473C12.5266 4.84473 12.8243 5.14245 12.8243 5.5097V6.83962H15.4841ZM11.4944 8.16955H8.83452C8.46725 8.16955 8.16955 8.46727 8.16955 8.83451V10.3409C8.16955 10.6718 8.41288 10.9524 8.74045 10.9992L11.4944 11.3926V8.16955ZM12.8243 12.926V16.1491H15.4841C15.8514 16.1491 16.1491 15.8514 16.1491 15.4841V13.9777C16.1491 13.6468 15.9058 13.3663 15.5782 13.3195L12.8243 12.926Z" fill="white"/>
<path fill-rule="evenodd" clip-rule="evenodd" d="M12 0C9.62666 0 7.30653 0.703787 5.33316 2.02236C3.35979 3.34095 1.8217 5.21509 0.913494 7.40779C0.00519901 9.60051 -0.232473 12.0133 0.230626 14.3411C0.693633 16.6689 1.83654 18.807 3.51472 20.4853C5.19299 22.1635 7.33111 23.3064 9.65895 23.7694C11.9867 24.2324 14.3995 23.9948 16.5922 23.0866C18.7849 22.1783 20.659 20.6402 21.9777 18.6668C23.2963 16.6934 24 14.3734 24 12C23.9974 8.81821 22.7322 5.76749 20.4824 3.51762C18.2325 1.26776 15.1818 0.0026323 12 0ZM12 22.3656C9.94987 22.3656 7.9458 21.7576 6.24118 20.6186C4.53656 19.4797 3.20802 17.8608 2.42348 15.9667C1.63894 14.0727 1.43365 11.9885 1.83366 9.97778C2.23359 7.96706 3.22083 6.12009 4.67042 4.67044C6.12011 3.22079 7.96704 2.23357 9.97779 1.83361C11.9885 1.43365 14.0727 1.63893 15.9667 2.42347C17.8608 3.20801 19.4797 4.53659 20.6187 6.2412C21.7576 7.94581 22.3656 9.94989 22.3656 12C22.3642 14.7487 21.2717 17.3844 19.3281 19.328C17.3844 21.2717 14.7487 22.3642 12 22.3656Z" fill="white"/>
</svg>
