<svg width="32" height="23" viewBox="0 0 32 23" fill="none" xmlns="http://www.w3.org/2000/svg">
<path d="M1.34313 2.99968H30.5999C30.7824 3.00382 30.9638 2.9681 31.1335 2.8946C31.3032 2.82109 31.4577 2.71129 31.5881 2.57162C31.7185 2.43195 31.8221 2.26523 31.8928 2.08122C31.9636 1.8972 32 1.6996 32 1.5C32 1.30039 31.9636 1.1028 31.8928 0.918784C31.8221 0.734771 31.7185 0.568046 31.5881 0.428378C31.4577 0.288709 31.3032 0.178906 31.1335 0.105403C30.9638 0.0319008 30.7824 -0.00382359 30.5999 0.000323856H1.34313C0.984366 0.00847777 0.642808 0.17006 0.391717 0.450416C0.140626 0.730772 0 1.10757 0 1.5C0 1.89243 0.140626 2.26923 0.391717 2.54958C0.642808 2.82994 0.984366 2.99152 1.34313 2.99968Z" fill="white"/>
<path d="M1.34896 12.9997H18.4559C18.6391 13.0038 18.8213 12.9681 18.9918 12.8946C19.1622 12.8211 19.3174 12.7113 19.4484 12.5716C19.5794 12.432 19.6834 12.2652 19.7544 12.0812C19.8255 11.8972 19.8621 11.6996 19.8621 11.5C19.8621 11.3004 19.8255 11.1028 19.7544 10.9188C19.6834 10.7348 19.5794 10.568 19.4484 10.4284C19.3174 10.2887 19.1622 10.1789 18.9918 10.1054C18.8213 10.0319 18.6391 9.99618 18.4559 10.0003H1.34896C0.988638 10.0085 0.645598 10.1701 0.393417 10.4504C0.141237 10.7308 0 11.1076 0 11.5C0 11.8924 0.141237 12.2692 0.393417 12.5496C0.645598 12.8299 0.988638 12.9915 1.34896 12.9997Z" fill="white"/>
<path d="M1.41492 22.9997H27.2747C27.4592 23.0038 27.6425 22.9681 27.814 22.8946C27.9855 22.8211 28.1417 22.7113 28.2734 22.5716C28.4052 22.432 28.5099 22.2652 28.5814 22.0812C28.6528 21.8972 28.6897 21.6996 28.6897 21.5C28.6897 21.3004 28.6528 21.1028 28.5814 20.9188C28.5099 20.7348 28.4052 20.5681 28.2734 20.4284C28.1417 20.2887 27.9855 20.1789 27.814 20.1054C27.6425 20.0319 27.4592 19.9962 27.2747 20.0003H1.41492C1.23051 19.9962 1.04718 20.0319 0.875694 20.1054C0.704204 20.1789 0.547995 20.2887 0.41622 20.4284C0.284445 20.5681 0.179755 20.7348 0.108285 20.9188C0.0368139 21.1028 0 21.3004 0 21.5C0 21.6996 0.0368139 21.8972 0.108285 22.0812C0.179755 22.2652 0.284445 22.432 0.41622 22.5716C0.547995 22.7113 0.704204 22.8211 0.875694 22.8946C1.04718 22.9681 1.23051 23.0038 1.41492 22.9997Z" fill="white"/>
</svg>
